<svg xmlns="http://www.w3.org/2000/svg" viewBox="0 0 64 64" width="64" height="64" role="img" aria-label="Elementary Computational Physics">
<rect width="64" height="64" rx="10" fill="#16213e"/>
<line x1="18" y1="24" x2="18" y2="16" stroke="#c0851a" stroke-width="2" stroke-linecap="round"/>
<polygon points="18,10.5 14.8,16.5 21.2,16.5" fill="#c0851a"/>
<line x1="32" y1="12" x2="32" y2="20" stroke="#faf7f0" stroke-width="2" stroke-linecap="round"/>
<polygon points="32,25.5 28.8,19.5 35.2,19.5" fill="#faf7f0"/>
<line x1="46" y1="24" x2="46" y2="16" stroke="#c0851a" stroke-width="2" stroke-linecap="round"/>
<polygon points="46,10.5 42.8,16.5 49.2,16.5" fill="#c0851a"/>
<line x1="18" y1="26" x2="18" y2="34" stroke="#faf7f0" stroke-width="2" stroke-linecap="round"/>
<polygon points="18,39.5 14.8,33.5 21.2,33.5" fill="#faf7f0"/>
<line x1="32" y1="38" x2="32" y2="30" stroke="#c0851a" stroke-width="2" stroke-linecap="round"/>
<polygon points="32,24.5 28.8,30.5 35.2,30.5" fill="#c0851a"/>
<line x1="46" y1="26" x2="46" y2="34" stroke="#faf7f0" stroke-width="2" stroke-linecap="round"/>
<polygon points="46,39.5 42.8,33.5 49.2,33.5" fill="#faf7f0"/>
<line x1="18" y1="52" x2="18" y2="44" stroke="#c0851a" stroke-width="2" stroke-linecap="round"/>
<polygon points="18,38.5 14.8,44.5 21.2,44.5" fill="#c0851a"/>
<line x1="32" y1="40" x2="32" y2="48" stroke="#faf7f0" stroke-width="2" stroke-linecap="round"/>
<polygon points="32,53.5 28.8,47.5 35.2,47.5" fill="#faf7f0"/>
<line x1="46" y1="52" x2="46" y2="44" stroke="#c0851a" stroke-width="2" stroke-linecap="round"/>
<polygon points="46,38.5 42.8,44.5 49.2,44.5" fill="#c0851a"/>
</svg>