<svg xmlns="http://www.w3.org/2000/svg" viewBox="0 0 64 64" width="64" height="64" role="img" aria-label="Elementary Computational Physics">
<rect width="64" height="64" rx="10" fill="#16213e"/>
<line x1="18" y1="23.1" x2="18" y2="16.8" stroke="#c0851a" stroke-width="2.2" stroke-linecap="round"/>
<polygon points="18,11.8 15.2,16.8 20.8,16.8" fill="#c0851a"/>
<line x1="32" y1="12.9" x2="32" y2="19.2" stroke="#faf7f0" stroke-width="2.2" stroke-linecap="round"/>
<polygon points="32,24.2 29.2,19.2 34.8,19.2" fill="#faf7f0"/>
<line x1="46" y1="23.1" x2="46" y2="16.8" stroke="#c0851a" stroke-width="2.2" stroke-linecap="round"/>
<polygon points="46,11.8 43.2,16.8 48.8,16.8" fill="#c0851a"/>
<line x1="18" y1="26.9" x2="18" y2="33.2" stroke="#faf7f0" stroke-width="2.2" stroke-linecap="round"/>
<polygon points="18,38.2 15.2,33.2 20.8,33.2" fill="#faf7f0"/>
<line x1="32" y1="37.1" x2="32" y2="30.8" stroke="#c0851a" stroke-width="2.2" stroke-linecap="round"/>
<polygon points="32,25.8 29.2,30.8 34.8,30.8" fill="#c0851a"/>
<line x1="46" y1="26.9" x2="46" y2="33.2" stroke="#faf7f0" stroke-width="2.2" stroke-linecap="round"/>
<polygon points="46,38.2 43.2,33.2 48.8,33.2" fill="#faf7f0"/>
<line x1="18" y1="51.1" x2="18" y2="44.8" stroke="#c0851a" stroke-width="2.2" stroke-linecap="round"/>
<polygon points="18,39.8 15.2,44.8 20.8,44.8" fill="#c0851a"/>
<line x1="32" y1="40.9" x2="32" y2="47.2" stroke="#faf7f0" stroke-width="2.2" stroke-linecap="round"/>
<polygon points="32,52.2 29.2,47.2 34.8,47.2" fill="#faf7f0"/>
<line x1="46" y1="51.1" x2="46" y2="44.8" stroke="#c0851a" stroke-width="2.2" stroke-linecap="round"/>
<polygon points="46,39.8 43.2,44.8 48.8,44.8" fill="#c0851a"/>
</svg>
