<svg xmlns="http://www.w3.org/2000/svg" viewBox="0 0 256 64" role="img" aria-label="Raymond Amador — pendulum, Elementary Computational Physics, Molecular and Materials Modelling, Introduction to the Bash Shell"><rect width="256" height="64" rx="12" fill="#16213e"/><g transform="translate(0,0)"><line x1="32" y1="16" x2="44" y2="34" stroke="#faf7f0" stroke-width="2.4" stroke-linecap="round"/>
  <line x1="44" y1="34" x2="30" y2="50" stroke="#c0851a" stroke-width="2.4" stroke-linecap="round"/>
  <circle cx="32" cy="16" r="3" fill="#faf7f0"/>
  <circle cx="44" cy="34" r="4" fill="#faf7f0"/>
  <circle cx="30" cy="50" r="4" fill="#c0851a"/></g><g transform="translate(64,0)"><line x1="18" y1="24" x2="18" y2="16" stroke="#c0851a" stroke-width="2" stroke-linecap="round"/>
<polygon points="18,10.5 14.8,16.5 21.2,16.5" fill="#c0851a"/>
<line x1="32" y1="12" x2="32" y2="20" stroke="#faf7f0" stroke-width="2" stroke-linecap="round"/>
<polygon points="32,25.5 28.8,19.5 35.2,19.5" fill="#faf7f0"/>
<line x1="46" y1="24" x2="46" y2="16" stroke="#c0851a" stroke-width="2" stroke-linecap="round"/>
<polygon points="46,10.5 42.8,16.5 49.2,16.5" fill="#c0851a"/>
<line x1="18" y1="26" x2="18" y2="34" stroke="#faf7f0" stroke-width="2" stroke-linecap="round"/>
<polygon points="18,39.5 14.8,33.5 21.2,33.5" fill="#faf7f0"/>
<line x1="32" y1="38" x2="32" y2="30" stroke="#c0851a" stroke-width="2" stroke-linecap="round"/>
<polygon points="32,24.5 28.8,30.5 35.2,30.5" fill="#c0851a"/>
<line x1="46" y1="26" x2="46" y2="34" stroke="#faf7f0" stroke-width="2" stroke-linecap="round"/>
<polygon points="46,39.5 42.8,33.5 49.2,33.5" fill="#faf7f0"/>
<line x1="18" y1="52" x2="18" y2="44" stroke="#c0851a" stroke-width="2" stroke-linecap="round"/>
<polygon points="18,38.5 14.8,44.5 21.2,44.5" fill="#c0851a"/>
<line x1="32" y1="40" x2="32" y2="48" stroke="#faf7f0" stroke-width="2" stroke-linecap="round"/>
<polygon points="32,53.5 28.8,47.5 35.2,47.5" fill="#faf7f0"/>
<line x1="46" y1="52" x2="46" y2="44" stroke="#c0851a" stroke-width="2" stroke-linecap="round"/>
<polygon points="46,38.5 42.8,44.5 49.2,44.5" fill="#c0851a"/></g><g transform="translate(128,0)"><!-- double-well potential energy surface: the unifying object of the course
       (Monte Carlo, molecular dynamics, geometry optimization, reaction paths) -->
  <path d="M12,26 C17,26 19,43 24,43 C28,43 30,31 32,31 C34,31 36,43 40,43 C45,43 47,26 52,26"
        fill="none" stroke="#faf7f0" stroke-width="2.4" stroke-linecap="round"/>
  <!-- the particle's path over the barrier (a reaction coordinate / NEB hop) -->
  <path d="M24,38 C27,24 37,24 40,38" fill="none" stroke="#c0851a" stroke-width="1.4"
        stroke-linecap="round" stroke-dasharray="1.5 2.6" opacity="0.85"/>
  <!-- the particle, resting in the left well -->
  <circle cx="24" cy="39" r="3.2" fill="#c0851a"/></g><g transform="translate(192,0)"><!-- terminal prompt glyph: amber chevron + blinking-style caret -->
  <polyline points="16,24 26,32 16,40" fill="none" stroke="#c0851a" stroke-width="3.2" stroke-linecap="round" stroke-linejoin="round"/>
  <line x1="32" y1="42" x2="46" y2="42" stroke="#faf7f0" stroke-width="3.2" stroke-linecap="round"/></g></svg>